<?xml version="1.0" encoding="utf-8"?>
<!-- Generator: Adobe Illustrator 14.0.0, SVG Export Plug-In . SVG Version: 6.00 Build 43363)  -->
<!DOCTYPE svg PUBLIC "-//W3C//DTD SVG 1.1//EN" "http://www.w3.org/Graphics/SVG/1.1/DTD/svg11.dtd">
<svg version="1.1" id="Ñëîé_1" xmlns="http://www.w3.org/2000/svg" xmlns:xlink="http://www.w3.org/1999/xlink" x="0px" y="0px"
	 width="400px" height="400px" viewBox="0 0 400 400" enable-background="new 0 0 400 400" xml:space="preserve">
<g>
	<g>
		<g>
			<path fill="#D4ECFF" d="M199.487,250.256l3.89-33.376c23.138,1.379,45.86,5.599,66.467,12.673L238.46,257.69
				C226.276,253.698,213.018,251.221,199.487,250.256z"/>
		</g>
		<g>
			<path fill="#F9BF30" d="M199.487,237.728l3.89-33.377c23.138,1.38,45.86,5.599,66.467,12.673l-31.384,28.138
				C226.276,241.169,213.018,238.691,199.487,237.728z"/>
		</g>
		<polygon fill="#F9BF30" points="199.487,166.97 237.684,168.678 238.46,174.404 238.46,245.161 208.738,233.92 199.487,237.728 		
			"/>
		<polygon fill="#E8A200" points="269.844,146.267 269.844,217.023 238.46,245.161 238.46,174.404 		"/>
		<g>
			<path fill="#FDD762" d="M199.487,166.97l3.89-33.376c23.138,1.379,45.86,5.599,66.467,12.673l-31.384,28.138
				C226.276,170.412,213.018,167.935,199.487,166.97z"/>
		</g>
		<path fill="#FDD762" d="M238.46,175.92c-12.146-3.98-25.364-6.454-38.852-7.424l-0.121,1.036
			c13.53,0.964,26.789,3.442,38.973,7.435l31.384-28.138c0-0.245,0-0.73,0-1.045L238.46,175.92z"/>
	</g>
	<g>
		<g>
			<path fill="#D4ECFF" d="M187.644,249.602c-25.489-0.158-51.053,4.986-71.302,15.447L75.399,241.41
				c32.593-17.516,74.547-25.904,116.132-25.17L187.644,249.602z"/>
		</g>
		<g>
			<path fill="#D3008D" d="M187.644,237.265c-25.489-0.157-51.053,4.988-71.302,15.447l-40.942-23.638
				c32.593-17.517,74.547-25.904,116.132-25.17L187.644,237.265z"/>
		</g>
		<polygon fill="#CC0293" points="187.644,237.265 187.644,212.839 191.531,179.478 191.531,203.904 		"/>
		<polygon fill="#D3008D" points="116.342,228.286 161.945,187.288 187.644,212.839 187.644,237.265 121.322,236.84 
			116.342,252.712 		"/>
		<polygon fill="#D3008D" points="75.399,204.647 75.399,229.074 116.342,252.712 116.342,228.286 		"/>
		<g>
			<path fill="#FF2C9C" d="M187.644,212.839c-25.489-0.158-51.053,4.987-71.302,15.447l-40.942-23.639
				c32.593-17.516,74.547-25.904,116.132-25.17L187.644,212.839z"/>
		</g>
		<path fill="#FF2C9C" d="M187.644,214.168c-25.489-0.157-51.053,4.988-71.302,15.447l-40.942-23.643c0,0.222,0,0.492,0,0.713
			l40.942,23.638c20.249-10.46,45.813-15.604,71.302-15.447l3.888-33.361c-0.027,0-0.055,0-0.082,0L187.644,214.168z"/>
	</g>
	<g>
		<g>
			<path fill="#D4ECFF" d="M276.211,341.938c25.033-23.441,19.98-54.559-15.217-74.88c-3.961-2.286-8.163-4.349-12.552-6.194
				l31.352-28.108c7.769,3.132,15.192,6.672,22.125,10.675c55.338,31.949,62.599,81.126,21.847,117.619L276.211,341.938z"/>
		</g>
		<g>
			<path fill="#B45EF4" d="M276.211,329.941c25.033-23.441,19.98-54.559-15.217-74.879c-3.961-2.287-8.163-4.349-12.552-6.195
				l31.352-28.108c7.769,3.132,15.192,6.672,22.125,10.675c55.338,31.949,62.599,81.127,21.847,117.619L276.211,329.941z"/>
		</g>
		<path fill="#B45EF4" d="M248.442,205.387v43.48l27.769,10.317c0,0,36.063-19.685,36.063-20.145c0-0.458-6.087-42.149-10.54-44.021
			C297.28,193.146,248.442,205.387,248.442,205.387z"/>
		<polygon fill="#983BE9" points="276.211,329.941 276.211,286.461 323.766,305.572 323.766,349.053 		"/>
		<path fill="#721BD5" d="M323.766,278.296v70.757c0,0,24.819-20.921,25.938-48.684l-0.06-45.42l-28.882-4.182L323.766,278.296z"/>
		<g>
			<path fill="#8A2AE3" d="M276.211,286.461c25.033-23.441,19.98-54.559-15.217-74.881c-3.961-2.286-8.163-4.348-12.552-6.193
				l31.352-28.108c7.769,3.131,15.192,6.672,22.125,10.674c55.338,31.95,62.599,81.125,21.847,117.62L276.211,286.461z"/>
		</g>
		<g>
			<path fill="#8A2AE3" d="M323.766,307.246l-47.555-19.117c0,0.369,0,0.758,0,1.131l47.555,19.111
				c17.431-15.609,26.069-33.539,25.928-51.448C349.472,274.457,340.831,291.963,323.766,307.246z"/>
			<path fill="#8A2AE3" d="M291.808,257.22c0.442-15.883-9.819-31.845-30.813-43.965c-3.705-2.14-8.47-4.42-12.552-6.173v1.104
				c4.389,1.846,8.591,3.907,12.552,6.194C281.492,226.214,291.746,241.711,291.808,257.22z"/>
		</g>
	</g>
</g>
<g>
	<g>
		<g>
			<g>
				<path fill="#D3008D" d="M158.474,210.381c-8.97,5.179-23.514,5.178-32.483,0c-8.97-5.18-8.97-13.576,0-18.755
					s23.513-5.179,32.482,0C167.443,196.806,167.443,205.202,158.474,210.381z"/>
				<path fill="#721BD5" d="M159.694,194.26l-4.987,0.031c-0.363-0.247-0.741-0.489-1.145-0.722c-8.176-4.72-21.432-4.721-29.607,0
					c-0.512,0.296-0.992,0.603-1.44,0.92l-4.69,0.029v7.598l0,0c0,3.093,2.044,6.187,6.132,8.546c8.176,4.721,21.431,4.721,29.606,0
					c4.088-2.359,6.132-5.453,6.132-8.546l0,0V194.26z"/>
				<path fill="#983BE9" d="M138.06,190.039c-5.122,0.098-10.194,1.273-14.104,3.53c-0.512,0.296-0.992,0.603-1.44,0.92l-4.69,0.029
					v7.598c0,3.093,2.044,6.187,6.132,8.546c3.91,2.258,8.981,3.433,14.104,3.531V190.039z"/>
				<path fill="#B45EF4" d="M120.701,194.501l-2.877,0.018v7.598c0,2.118,0.96,4.236,2.877,6.119V194.501z"/>
				<path fill="#8A2AE3" d="M153.563,202.807c-8.176,4.721-21.431,4.721-29.606,0s-8.176-12.373-0.001-17.094
					c8.176-4.72,21.432-4.72,29.607,0S161.738,198.087,153.563,202.807z"/>
				<path fill="#B45EF4" d="M153.563,202.807c-8.176,4.721-21.431,4.721-29.606,0c-3.883-2.242-5.917-5.145-6.112-8.08
					c-0.217,3.247,1.818,6.535,6.112,9.014c8.176,4.721,21.431,4.721,29.606,0c4.293-2.479,6.328-5.766,6.112-9.013
					C159.479,197.663,157.444,200.565,153.563,202.807z"/>
			</g>
			<g>
				<path fill="#721BD5" d="M153.948,190.942l-3.618,0.022c-0.264-0.179-0.538-0.354-0.831-0.523c-5.932-3.425-15.549-3.425-21.48,0
					c-0.372,0.215-0.72,0.438-1.045,0.668l-3.403,0.021v2.615l0,0c0,2.244,1.482,4.488,4.448,6.201
					c5.933,3.425,15.55,3.425,21.481,0c2.966-1.712,4.448-3.957,4.448-6.201l0,0V190.942z"/>
				<path fill="#983BE9" d="M138.251,187.88c-3.716,0.071-7.396,0.924-10.232,2.562c-0.372,0.215-0.72,0.438-1.045,0.668
					l-3.403,0.021v2.615c0,2.244,1.482,4.488,4.448,6.201c2.837,1.638,6.517,2.49,10.232,2.562V187.88z"/>
				<path fill="#B45EF4" d="M125.657,191.117l-2.087,0.013v2.615c0,1.537,0.696,3.074,2.087,4.44V191.117z"/>
				<path fill="#8A2AE3" d="M149.5,197.144c-5.932,3.425-15.549,3.425-21.481,0c-5.932-3.425-5.932-8.978,0-12.401
					c5.932-3.425,15.549-3.425,21.48,0C155.431,188.167,155.432,193.719,149.5,197.144z"/>
			</g>
		</g>
		<g>
			<g>
				<g>
					<path fill="#FDD762" d="M111.003,164.502c-5.062,0-9.812-2.671-12.435-7.01l-7.961-13.2c-0.95-1.574-0.978-3.471-0.074-5.072
						s2.542-2.558,4.382-2.558h15.727v4.097H94.916c-0.475,0-0.714,0.298-0.814,0.476c-0.1,0.177-0.231,0.535,0.014,0.941
						l7.959,13.198c1.91,3.159,5.378,5.1,9.083,5.03l13.688-0.207l0.062,4.097l-13.688,0.207
						C111.147,164.502,111.075,164.502,111.003,164.502z"/>
				</g>
				<g>
					<path fill="#FDD762" d="M166.515,164.502c-0.072,0-0.145,0-0.217-0.001l-13.688-0.207l0.062-4.097l13.688,0.207
						c3.685,0.083,7.174-1.873,9.085-5.032l7.958-13.196c0.245-0.406,0.114-0.765,0.014-0.941c-0.1-0.178-0.339-0.476-0.813-0.476
						h-15.728v-4.097h15.728c1.84,0,3.478,0.957,4.382,2.558s0.877,3.498-0.073,5.073l-7.96,13.197
						C176.326,161.83,171.576,164.502,166.515,164.502z"/>
				</g>
				<path fill="#E8A200" d="M179.245,149.068l-3.801,6.303c-1.911,3.16-5.4,5.116-9.085,5.032l-13.688-0.207l-0.062,4.097
					l13.688,0.207c0.072,0.001,0.145,0.001,0.217,0.001c4.562,0,8.864-2.175,11.592-5.781
					C179.907,154.094,179.623,150.749,179.245,149.068z"/>
			</g>
			<g>
				<g>
					<g>
						<g>
							<path fill="#FFFFFF" d="M130.624,183.786c4.493,2.594,11.776,2.594,16.27,0s4.493-6.799,0-9.393
								c-4.492-2.594-11.776-2.594-16.27,0C126.132,176.987,126.132,181.192,130.624,183.786z"/>
						</g>
					</g>
					<g>
						<g>
							<path fill="#F9BF30" d="M125.325,185.732c2.423-1.799,1.956-3.559,1.956-3.559l1.834,2.212
								c5.574-2.689,13.717-2.689,19.291,0.001l1.835-2.214c0,0-0.468,1.759,1.956,3.559c2.423,1.799,1.632,5.332,1.632,5.332
								l-0.005-0.005c0.002,2.228-1.469,4.456-4.412,6.155c-5.884,3.397-15.423,3.397-21.307,0
								c-2.941-1.699-4.412-3.925-4.412-6.151C123.692,191.061,122.903,187.53,125.325,185.732z"/>
						</g>
					</g>
					<g>
						<g>
							<path fill="#E8A200" d="M147.176,186.261c0,0-4.353-2.576-4.353-3.119c0-0.08,0.089-0.224,0.236-0.404
								c1.913,0.328,3.738,0.874,5.347,1.65l1.835-2.214c0,0-0.468,1.759,1.956,3.559c2.423,1.799,1.632,5.332,1.632,5.332
								l-0.005-0.005c0.001,1.215-0.452,2.428-1.328,3.558c0.039-0.276,0.504-3.916-2.232-5.108
								C147.419,188.269,147.176,186.261,147.176,186.261z"/>
						</g>
					</g>
					<g>
						<g>
							<path fill="#E8A200" d="M130.624,186.43c4.493,2.594,11.776,2.594,16.27,0s4.493-6.8,0-9.394
								c-4.492-2.594-11.776-2.594-16.27,0C126.132,179.63,126.132,183.836,130.624,186.43z"/>
						</g>
					</g>
					<g>
						<g>
							<path fill="#F9BF30" d="M168.852,136.907c-0.303,16.771-8.949,18.802-13.575,25.08c-4.317,5.859-3.826,14.332-3.741,15.438
								c0.001,0.041,0.011,0.082,0.011,0.123l0,0l0,0c0,1.889-1.249,3.778-3.745,5.22c-4.994,2.883-13.09,2.883-18.083,0
								c-2.341-1.351-3.569-3.096-3.716-4.866l-0.029,0v-0.354v-0.001c0-0.04,0.009-0.08,0.01-0.12
								c0.084-1.097,0.579-9.577-3.741-15.439c-4.625-6.278-13.271-8.309-13.574-25.08H168.852z"/>
						</g>
					</g>
					<path fill="#E8A200" d="M146.868,155.167c0,0-0.703,2.005-2.887,7.737c-2.185,5.732-1.158,20.238-1.158,20.238l3.716,0.256
						c0.437-0.193,0.861-0.399,1.262-0.63c2.496-1.441,3.745-3.331,3.745-5.22l0,0c0-0.041-0.01-0.082-0.011-0.124
						c-0.085-1.105-0.576-9.578,3.741-15.437c4.626-6.278,13.272-8.309,13.575-25.08h-3.296L146.868,155.167z"/>
					<g>
						<g>
							<path fill="#FDD762" d="M117.48,149.192c11.751,6.784,30.805,6.784,42.557-0.001c11.752-6.784,11.752-17.785,0-24.57
								c-11.751-6.785-30.805-6.785-42.557,0S105.729,142.407,117.48,149.192z"/>
						</g>
					</g>
					<path fill="#FFFFFF" d="M117.48,149.192c11.751,6.784,30.805,6.784,42.557-0.001c5.54-3.198,8.466-7.333,8.782-11.522
						c0.355,4.697-2.569,9.462-8.782,13.049c-11.752,6.785-30.806,6.785-42.557,0c-6.212-3.586-9.137-8.35-8.781-13.047
						C109.016,141.859,111.941,145.994,117.48,149.192z"/>
					<g>
						<g>
							<path fill="#F2B42A" d="M120.9,147.218c9.862,5.694,25.854,5.694,35.717,0s9.863-14.927,0.001-20.622
								c-9.863-5.694-25.854-5.694-35.718,0.001C111.037,132.291,111.037,141.523,120.9,147.218z"/>
						</g>
					</g>
					<path fill="#E8A200" d="M120.9,147.218c4.133,2.386,9.346,3.759,14.729,4.145c0.842-1.057,1.17-2.198,0.763-3.417
						c-2.622-7.86-1.608-24.143-1.608-24.143l-4.751-0.566c-3.329,0.707-6.459,1.817-9.133,3.36
						C111.037,132.291,111.037,141.523,120.9,147.218z"/>
					<path fill="#FFFFFF" d="M156.618,127.891c-9.863-5.694-25.854-5.694-35.718,0c-4.646,2.683-7.102,6.151-7.371,9.664
						c-0.301-3.944,2.154-7.946,7.371-10.958c9.863-5.695,25.854-5.695,35.717-0.001c5.217,3.012,7.672,7.013,7.371,10.957
						C163.719,134.04,161.264,130.572,156.618,127.891z"/>
					<path fill="#E8A200" d="M151.123,149.62c-7.655,2.485-17.072,2.485-24.729,0c0.262-0.175,0.533-0.348,0.821-0.514
						c6.375-3.681,16.712-3.682,23.087,0C150.591,149.272,150.861,149.445,151.123,149.62z"/>
				</g>
			</g>
			<g>
				<path fill="#FFFFFF" d="M125.982,177.427c0.01-0.132,0.026-0.374,0.039-0.703c0.192,1.727,1.41,3.422,3.696,4.742
					c4.993,2.883,13.089,2.883,18.083,0c2.234-1.291,3.467-2.94,3.7-4.627c0.012,0.269,0.025,0.47,0.034,0.586
					c0.001,0.042,0.011,0.083,0.011,0.124l0,0c0,1.889-1.249,3.778-3.745,5.22c-4.994,2.883-13.09,2.883-18.083,0
					c-2.341-1.351-3.569-3.096-3.716-4.866l-0.029,0v-0.354v-0.001C125.973,177.507,125.981,177.467,125.982,177.427z"/>
			</g>
		</g>
	</g>
</g>
<g>
	<path fill="#F9BF30" d="M219.845,158.104c5.599,3.232,14.676,3.232,20.274,0c5.598-3.232,5.599-8.473,0-11.705
		c-5.599-3.232-14.676-3.232-20.273,0C214.247,149.631,214.247,154.871,219.845,158.104z"/>
	<g>
		<path fill="#6614CF" d="M239.039,40.164c0,0-0.411,8.493-1.058,14.201c-0.646,5.707-14.393-4.385-14.393-4.385v-6.498
			L239.039,40.164z"/>
		<g>
			<path fill="#173D7A" d="M231.718,145.833c-0.206,0.516-3.769,4.852-7.33,5.936c-1.548,0.471-2.589,0.533-3.271,0.452
				c-0.685-0.082-1.108-0.787-0.877-1.437c0.613-1.726,2.37-5.32,6.833-7.532C233.111,140.258,231.718,145.833,231.718,145.833z"/>
			<path fill="#173D7A" d="M232.905,147.499c0,0-1.342,3.149-1.755,5.781c-0.252,1.606,0.629,3.692,1.354,5.075
				c0.45,0.858,1.592,1.051,2.31,0.399c1.164-1.056,2.646-2.891,2.892-5.526c0.412-4.439,0-5.213,0-5.213L232.905,147.499z"/>
			<path fill="#FDD762" d="M241.485,93.844c0,0,0.464,5.6,0,11.793c-0.465,6.194-2.128,35.162-2.438,42.131
				c0,0,0.154,2.11-3.93,1.646c-4.084-0.465-3.755-2.807-3.755-2.807s-5.736-0.078-5.917-3.459s-5.875-40.374-5.875-53.674
				L241.485,93.844z"/>
			<g>
				<polygon fill="#FFC2B0" points="221.546,64.939 218.238,85.172 215.228,85.119 215.505,66.58 				"/>
				<path fill="#8A2AE3" d="M222.932,47.024c0,0-4.464-0.116-6.018,6.336c-1.555,6.452-2.77,14.53-1.418,15.202
					c4.057,2.015,6.625-0.343,6.625-0.343L222.932,47.024z"/>
				<path fill="#983BE9" d="M221.596,47.298c0.762-0.318,1.616-0.36,2.41-0.132c3.803,1.092,18.104,5.289,20.46,7.304
					c2.724,2.327-4.083,15.406-3.985,19.694s0.582,9.343,0.96,14.005c0.379,4.662,0.892,7.217-2.921,9.199
					s-10.322,2.074-15.195-1.64s-3.989-6.254-3.786-8.95c0.202-2.695,1.862-14.354,1.718-17.663c0,0-1.717-1.265-2.988-3.435
					c-1.272-2.169,0.975-6.156,1.907-8.749s-0.526-5.556-0.237-7.671C220.086,48.171,220.781,47.639,221.596,47.298z"/>
				
					<ellipse transform="matrix(-0.9919 -0.1271 0.1271 -0.9919 454.5368 133.8958)" fill="#FFFFFF" cx="231.541" cy="52.445" rx="5.416" ry="4.3"/>
				
					<ellipse transform="matrix(-0.9919 -0.1271 0.1271 -0.9919 454.5384 133.8883)" fill="#FFC2B0" cx="231.54" cy="52.445" rx="3.871" ry="3.074"/>
				<path fill="#FFC2B0" d="M229.809,46.426c0,0,2.58-2.123,3.088-1.048c0.507,1.076,0.925,5.69,0.925,5.69l-5.126,1.377
					l0.777-4.676C229.473,47.77,228.447,46.9,229.809,46.426z"/>
				<circle fill="#FFC2B0" cx="229.437" cy="40.918" r="7.654"/>
				<path fill="#EA9C92" d="M233.254,46.716c0.046,0.241,0.089,0.499,0.131,0.763c-0.516,2.663-4.5,3.829-4.5,3.829l0.588-3.538
					c0,0-0.482-0.409-0.346-0.819C230.701,46.453,232.687,46.013,233.254,46.716z"/>
				<circle fill="#FFC2B0" cx="229.437" cy="40.918" r="7.654"/>
				<polygon fill="#FFC2B0" points="248.296,73.318 247.439,93.801 244.445,94.11 242.496,75.671 				"/>
				<path fill="#8A2AE3" d="M238.455,71.606c0.991-4.374,2.949-14.038,2.949-14.038l0.836,9.612
					c-0.965,2.851-1.795,5.467-1.76,6.983c0.058,2.517,0.249,5.299,0.473,8.11v0.009C240.953,82.282,237.464,75.98,238.455,71.606z"
					/>
				<path fill="#B45EF4" d="M243.895,54.049c0,0,2.395,0.916,3.749,8.27c1.355,7.355,2.369,14.723-0.047,15.672
					c-2.416,0.95-4.435,1.664-5.146-0.304c-0.71-1.967-1.15-11.446-1.239-14.855C241.123,59.423,240.992,54.723,243.895,54.049z"/>
			</g>
			<path fill="#D8892B" d="M231.363,146.607c0,0-0.711-0.011-1.64-0.17l0,0l-1.122-45.029L231.363,146.607z"/>
		</g>
		<g>
			<path fill="#983BE9" d="M235.697,122.284l1.594-2.081l16.756-9.702c0.537-0.311,0.972-1.144,0.971-1.861l-0.015-13.718
				l0.964-1.258l-0.905-0.524l-0.001,0.001c-0.174-0.112-0.404-0.109-0.657,0.038l-18.989,10.995
				c-0.537,0.311-0.973,1.144-0.972,1.861l0.017,14.94c0,0.403,0.139,0.684,0.355,0.796l0,0L235.697,122.284z"/>
			<path fill="#D29FFF" d="M247.285,114.417l1.19-0.689l6.534-11.351l-0.007-7.454l0.964-1.258l-0.905-0.524l-0.001,0.001
				c-0.174-0.112-0.404-0.109-0.657,0.038l-18.989,10.995c-0.284,0.165-0.539,0.475-0.716,0.837L247.285,114.417z"/>
			<path fill="#D29FFF" d="M255.539,94.223l0.428-0.558l-0.905-0.524l-0.001,0.001c-0.174-0.112-0.404-0.109-0.657,0.038
				l-0.335,0.194L255.539,94.223z"/>
			<path fill="#983BE9" d="M235.241,104.296c-0.422,0.345-0.749,0.997-0.793,1.6l1.855,1.071l0.89-1.544L235.241,104.296z"/>
			<path fill="#B45EF4" d="M236.318,104.698l18.989-10.995c0.537-0.311,0.974,0.018,0.975,0.735l0.016,14.94
				c0.001,0.717-0.434,1.55-0.971,1.861l-18.989,10.995c-0.538,0.311-0.974-0.018-0.975-0.735l-0.017-14.94
				C235.346,105.842,235.781,105.009,236.318,104.698z"/>
			<path fill="#D29FFF" d="M248.096,107.674c0,0.917-0.644,2.033-1.438,2.492c-0.794,0.458-1.438,0.087-1.438-0.831
				c0-0.917,0.645-2.032,1.438-2.491C247.452,106.385,248.096,106.757,248.096,107.674z"/>
		</g>
		<path fill="#FFC2B0" d="M247.416,93.63c0,0,0.791,4.781,0.672,6.313s-0.938,4.057-1.561,4.004
			c-0.622-0.054-0.021-6.158-1.113-5.55c-1.093,0.607-1.207,1.65-1.702,1.282s0.863-5.586,0.501-7.849S247.416,93.63,247.416,93.63z
			"/>
		<path fill="#FFC2B0" d="M215.228,85.119c0,0-0.791,4.781-0.672,6.313s0.938,4.058,1.561,4.004s0.021-6.158,1.113-5.55
			c1.093,0.608,1.207,1.651,1.702,1.282c0.494-0.368-0.863-5.586-0.501-7.849S215.228,85.119,215.228,85.119z"/>
		<path fill="#EA9C92" d="M226.497,41.586c-3.84,1.364-4.587,0.532-4.624,0.487c-0.035-0.231-0.063-0.466-0.077-0.704
			c-0.05-0.848,0.046-1.669,0.255-2.446l9.962-1.345C232.013,37.579,230.44,40.186,226.497,41.586z"/>
		<path fill="#6614CF" d="M221.52,33.743c0.905-0.775,4.171-4.61,10.021-3.706c3.656,0.566,6.738,3.06,7.422,8.749
			c0.46,3.834-0.946,7.609-3.538,10.4c-0.141-0.064-0.286-0.125-0.416-0.21c-1.465-0.964-1.623-1.495-1.623-1.5l-0.323-2.903
			c0.01-0.412,0.318-0.779,0.729-0.805c0.318-0.02,0.704-0.173,1.072-0.653c0.84-1.099,0.452-2.812-1.229-2.877
			c-0.878-0.033-1.218-0.508-1.342-0.954c-0.108-0.388-0.518-0.604-0.896-0.467c-1.912,0.691-6.623,2.183-9.655,1.324
			C217.863,39.044,220.615,34.519,221.52,33.743z"/>
		<path fill="#FFFFFF" d="M225.882,45.043l-2.341-0.643c0,0,1.117,1.759,2.749,2.207c1.633,0.449,1.886-0.933,1.886-0.933
			L225.882,45.043z"/>
		<polygon fill="#D29FFF" points="243.435,99.53 245.43,98.389 244.68,99.612 243.672,99.984 		"/>
	</g>
</g>
<g>
	<g>
		<g>
			<g>
				<path fill="#173D7A" d="M284.766,259.186c0,0-2.413-1.217-3.896,0.596c-1.481,1.813-3.601,6.09-3.666,8.98
					s2.287,2.696,3.687,2.012c1.398-0.684,5.484-6.611,5.732-7.773c0.247-1.161-0.292-2.731-0.686-3.039
					C285.545,259.654,284.766,259.186,284.766,259.186z"/>
				<path fill="#E8A200" d="M285.292,258.604l0.112,2.5c0.023,0.532-0.244,1.038-0.707,1.301c-0.422,0.239-1.033,0.423-1.861,0.29
					c-1.818-0.293-1.98-0.813-2.11-3.312C280.596,256.884,285.292,258.604,285.292,258.604z"/>
				<g>
					<path fill="#173D7A" d="M275.932,254.379c0,0-2.413-1.217-3.896,0.595c-1.481,1.813-3.601,6.091-3.666,8.981
						s2.287,2.695,3.687,2.011c1.398-0.684,5.484-6.611,5.732-7.772c0.247-1.162-0.292-2.732-0.686-3.04
						C276.711,254.847,275.932,254.379,275.932,254.379z"/>
					<path fill="#E8A200" d="M276.458,253.797l0.112,2.5c0.023,0.532-0.244,1.039-0.707,1.301c-0.421,0.239-1.033,0.423-1.861,0.29
						c-1.818-0.292-1.98-0.812-2.11-3.312S276.458,253.797,276.458,253.797z"/>
					<path fill="#FDD762" d="M297.992,207.894c-0.714-11.622-12.586,1.71-12.586,1.71l-8.126,7.965l-7.316,8.037
						c-1.429,1.57-2.094,3.689-1.817,5.794l2.96,22.538c0.146,1.113,1.099,1.934,2.221,1.925c0.317-0.002,0.681-0.031,1.097-0.096
						c2.641-0.411,2.445-2.922,2.445-2.922l-0.541-21.079l15.366-9.264C291.694,222.502,298.707,219.516,297.992,207.894z"/>
				</g>
				<path fill="#FDD762" d="M306.826,212.322c-0.714-11.622-12.586,1.71-12.586,1.71l-8.126,7.964l-7.316,8.038
					c-1.429,1.569-2.094,3.688-1.817,5.794l2.96,22.537c0.146,1.113,1.099,1.935,2.221,1.926c0.317-0.003,0.681-0.031,1.097-0.097
					c2.641-0.411,2.445-2.922,2.445-2.922l-0.541-21.079l15.366-9.263C300.528,226.931,307.54,223.943,306.826,212.322z"/>
				<path fill="#983BE9" d="M299.803,175.015c9.001,3.732,8.82,9.052,8.82,9.052s-1.763,19.505-1.161,32.532
					c0.251,5.445-28.933,5.861-24.581-8.668c5.132-17.129,3.209-30.997,5.611-33.089
					C290.894,172.751,297.475,174.05,299.803,175.015z"/>
				
					<ellipse transform="matrix(0.9684 0.2494 -0.2494 0.9684 53.9684 -68.7375)" fill="#FFC2B0" cx="298.203" cy="178.575" rx="4.642" ry="3.417"/>
				<path fill="#FFFFFF" d="M298.887,182.513c-0.539,0-1.094-0.07-1.644-0.213c-1.289-0.331-2.409-1.018-3.154-1.932
					c-0.777-0.953-1.061-2.039-0.798-3.059s1.035-1.834,2.176-2.293c1.096-0.439,2.408-0.5,3.696-0.167
					c2.709,0.697,4.482,2.937,3.953,4.99c-0.263,1.02-1.035,1.834-2.176,2.293C300.313,182.385,299.612,182.513,298.887,182.513z
					 M297.519,175.497c-0.615,0-1.205,0.106-1.73,0.318c-0.88,0.354-1.471,0.961-1.663,1.709c-0.193,0.748,0.031,1.564,0.63,2.3
					c0.631,0.772,1.591,1.356,2.703,1.643c1.113,0.286,2.234,0.24,3.161-0.133c0.88-0.354,1.471-0.961,1.663-1.709l0,0
					c0.411-1.594-1.085-3.363-3.334-3.942C298.468,175.559,297.985,175.497,297.519,175.497z"/>
				<path fill="#FFC2B0" d="M296.194,174.609c0,0,0.077,0.361-0.078,3.213c-0.049,0.897,3.091,1.734,3.902,0.923
					s0.486-1.655,0.682-4.707C300.895,170.986,296.194,174.609,296.194,174.609z"/>
				<path fill="#EA9C92" d="M300.7,174.038c0,0-0.773,2.829-4.585,3.915l0.058-2.572L300.7,174.038z"/>
				<circle fill="#FFC2B0" cx="296.407" cy="168.583" r="6.928"/>
				<path fill="#EA9C92" d="M297.998,168.838c0,0-3.814,1.634-6.456,1.652c-2.642,0.019-2.06-2.193-2.06-2.193l7.841-1.133
					L297.998,168.838z"/>
				<path fill="#FF2C9C" d="M290.755,169.269c0,0,3.322-1.411,6.238-0.823c0.685,0.138,1.32,0.504,1.761,1.047
					c0.145,0.177,0.327,0.339,0.533,0.386c0.518,0.117,1.363-2.028,2.368-2.077s1.675,0.663,0.852,1.981
					c-0.824,1.319-0.546,2.795-0.167,3.007c0.38,0.211,4.4-2.868,0.854-9.893c-3.546-7.026-12.555-3.242-13.956-1.818
					c0,0-1.477,1.286-2.677,0.142C286.561,161.221,285.215,171.3,290.755,169.269z"/>
				<path fill="#FFC2B0" d="M284.089,173.418l-4.84-2.086c-0.555-0.239-0.983-0.701-1.18-1.271l-4.779-13.851l-2.215,0.385
					l3.863,17.235c0.181,0.805,0.693,1.495,1.413,1.898l8.058,4.526L284.089,173.418z"/>
			</g>
			<path fill="#FFC2B0" d="M334.443,175.671l1.11-0.51c0.945-0.434,1.809-1.03,2.549-1.761l0.772-0.763
				c0.437-0.43,0.566-1.083,0.328-1.647l0,0c-0.186-0.441-0.706-0.632-1.133-0.416l-2.319,1.171c0,0,0.362-1.027,0.188-1.294
				c-0.175-0.267-1.97,1.714-2.8,3.119S334.443,175.671,334.443,175.671z"/>
			<path fill="#FFC2B0" d="M315.128,181.21l4.14-0.462c0.979-0.109,1.926-0.416,2.782-0.901l11.09-6.276l1.304,2.101l-11.339,8.754
				c-0.351,0.27-0.733,0.495-1.14,0.669l-6.763,2.891L315.128,181.21z"/>
			<path fill="#FFC2B0" d="M271.075,156.595l-0.423-0.487c-0.486-0.561-0.802-1.25-0.909-1.985l-0.296-2.02
				c-0.092-0.628,0.154-1.268,0.664-1.646c0.019-0.014,0.037-0.027,0.057-0.04c0.536-0.37,1.284-0.102,1.533,0.5l0.996,2.407
				c0,0-0.314-1.247,0.088-1.385c0.295-0.101,0.854,1.445,0.523,2.306c-0.33,0.859-0.019,1.964-0.019,1.964L271.075,156.595z"/>
			<path fill="#FFFFFF" d="M293.658,173.354l-1.789-0.492c0,0,0.854,1.344,2.101,1.686s1.44-0.713,1.44-0.713L293.658,173.354z"/>
		</g>
	</g>
	<path fill="#983BE9" d="M290.975,173.848c0,0-8.084-1.598-10.553-2.348s-3.5,6.032-3.313,7.75c0.188,1.719,8.594,3.637,9.594,6.584
		C287.703,188.782,290.975,173.848,290.975,173.848z"/>
	<path fill="#983BE9" d="M303.337,176.824c0,0,5.909,2.535,15.797,3.771c0.402,0.05,0.747,0.316,0.88,0.699
		c0.381,1.095,1.032,3.485,0.523,5.944c-0.209,1.014-1.127,1.725-2.162,1.718c-3.096-0.021-9.758,0.276-10.839,3.169
		C306.119,195.917,303.337,176.824,303.337,176.824z"/>
</g>
<g>
	<rect x="197.737" y="34.784" fill="#8A2AE3" width="1.75" height="5.083"/>
	<rect x="199.487" y="37.826" fill="#8A2AE3" width="1.75" height="5.083"/>
</g>
<g>
	
		<rect x="274.79" y="81.581" transform="matrix(-0.5744 -0.8185 0.8185 -0.5744 364.9564 359.4509)" fill="#FDD762" width="2.254" height="6.548"/>
	
		<rect x="276.703" y="77.484" transform="matrix(-0.5743 -0.8186 0.8186 -0.5743 371.2867 354.5785)" fill="#FDD762" width="2.255" height="6.549"/>
	
		<rect x="278.615" y="73.389" transform="matrix(-0.5743 -0.8186 0.8186 -0.5743 377.6508 349.6958)" fill="#FDD762" width="2.255" height="6.548"/>
	
		<rect x="280.529" y="69.292" transform="matrix(-0.5744 -0.8185 0.8185 -0.5744 384.0495 344.8008)" fill="#FDD762" width="2.254" height="6.549"/>
</g>
<g>
	
		<rect x="139.46" y="82.817" transform="matrix(0.2483 0.9687 -0.9687 0.2483 188.1747 -71.7759)" fill="#FDD762" width="1.75" height="5.084"/>
	
		<rect x="136.948" y="85.268" transform="matrix(0.2483 0.9687 -0.9687 0.2483 188.6599 -67.5004)" fill="#FDD762" width="1.75" height="5.083"/>
	
		<rect x="134.436" y="87.719" transform="matrix(0.2489 0.9685 -0.9685 0.2489 189.0522 -63.258)" fill="#FDD762" width="1.75" height="5.084"/>
	
		<rect x="131.924" y="90.169" transform="matrix(0.2483 0.9687 -0.9687 0.2483 189.6309 -58.9498)" fill="#FDD762" width="1.75" height="5.084"/>
</g>
<g>
	
		<rect x="308.048" y="131.477" transform="matrix(-0.9103 0.4139 -0.4139 -0.9103 645.6135 128.1601)" fill="#FF2C9C" width="1.751" height="5.083"/>
	
		<rect x="305.196" y="129.433" transform="matrix(-0.9101 0.4143 -0.4143 -0.9101 639.3152 125.275)" fill="#FF2C9C" width="1.75" height="5.083"/>
	
		<rect x="302.343" y="127.39" transform="matrix(-0.9101 0.4143 -0.4143 -0.9101 633.0197 122.5531)" fill="#FF2C9C" width="1.75" height="5.083"/>
	
		<rect x="299.491" y="125.346" transform="matrix(-0.9101 0.4143 -0.4143 -0.9101 626.7242 119.8313)" fill="#FF2C9C" width="1.75" height="5.083"/>
</g>
<rect x="170.967" y="55.464" transform="matrix(0.5686 0.8226 -0.8226 0.5686 123.6311 -116.0638)" fill="#FF2C9C" width="3.014" height="8.755"/>
<rect x="247.421" y="19.768" transform="matrix(-0.5311 0.8473 -0.8473 -0.5311 399.0578 -176.2334)" fill="#B45EF4" width="1.751" height="5.083"/>
<rect x="273.277" y="110.619" transform="matrix(0.5685 0.8227 -0.8227 0.5685 210.0753 -177.395)" fill="#FF2C9C" width="1.75" height="1.905"/>
<rect x="296.066" y="56.049" transform="matrix(0.5682 0.8229 -0.8229 0.5682 175.4538 -219.823)" fill="#FF2C9C" width="2.255" height="2.455"/>
<rect x="285.196" y="51.816" transform="matrix(0.5687 0.8225 -0.8225 0.5687 167.1174 -212.6344)" fill="#B45EF4" width="2.255" height="2.455"/>
<rect x="201.463" y="78.655" transform="matrix(0.5685 0.8227 -0.8227 0.5685 152.7943 -132.1077)" fill="#B45EF4" width="1.75" height="1.906"/>
<g>
	<path fill="#FF2C9C" d="M258.693,53.043l-1.178-2.292c0,0,1.093-0.601,1.408-1.79c0.25-0.95-0.031-2.088-0.839-3.383
		c-2.847-4.564-0.851-8.409,0.602-9.804l1.786,1.858l-0.893-0.929l0.898,0.922c-0.272,0.271-2.596,2.76-0.208,6.589
		c1.212,1.944,1.593,3.78,1.13,5.458C260.78,51.915,258.905,52.935,258.693,53.043z"/>
</g>
<g>
	<path fill="#B45EF4" d="M290.581,102.031l1.016-1.723c0,0,0.849,0.467,1.759,0.181c0.728-0.229,1.357-0.886,1.873-1.953
		c1.813-3.761,5.164-4.046,6.682-3.671l-0.479,1.942l0.239-0.971l-0.231,0.973c-0.291-0.066-2.888-0.56-4.41,2.596
		c-0.773,1.602-1.82,2.612-3.113,3.005C292.188,102.932,290.741,102.125,290.581,102.031z"/>
</g>
<g>
	<path fill="#B45EF4" d="M157.927,106.61l0.641-3.385c0,0,1.646,0.263,2.955-0.731c1.045-0.797,1.683-2.229,1.895-4.258
		c0.745-7.152,6.009-9.569,8.687-9.848l0.357,3.427l-0.179-1.713l0.191,1.711c-0.51,0.062-5.005,0.778-5.631,6.779
		c-0.318,3.046-1.425,5.295-3.291,6.685C161.056,107.133,158.24,106.668,157.927,106.61z"/>
</g>
<g>
	<path fill="#FDD762" d="M200.113,101.58l1.979,0.284c0,0-0.109,0.962,0.502,1.695c0.488,0.586,1.336,0.918,2.518,0.989
		c4.169,0.249,5.706,3.239,5.936,4.786l-1.978,0.294l0.989-0.146l-0.988,0.155c-0.049-0.294-0.58-2.883-4.078-3.092
		c-1.773-0.105-3.106-0.69-3.961-1.737C199.89,103.408,200.087,101.764,200.113,101.58z"/>
</g>
<g>
	<path fill="#D4ECFF" d="M172.287,304.97c9.721,5.612,25.482,5.612,35.204-0.001c9.721-5.612,9.722-14.712,0-20.324
		c-9.721-5.613-25.482-5.612-35.204,0C162.566,290.258,162.566,299.357,172.287,304.97z"/>
	<g>
		<path fill="#173D7A" d="M178.014,288.648c-1.402,0.599-2.284,2.162-2.168,3.842c0.056,0.793,0.151,1.531,0.316,1.878
			c0.446,0.937,1.908,2.222,4.242,1.3s7.518-5.793,7.711-8.98C188.477,280.767,181.705,287.072,178.014,288.648z"/>
		<path fill="#173D7A" d="M191.727,298.442c0,0-0.561,3.414-0.288,4.04c0.272,0.625,1.896,1.961,4.296,1.672
			s9.304-2.669,10.841-7.219c2.384-7.054-13.326,0.529-13.326,0.529L191.727,298.442z"/>
		<path fill="#FDD762" d="M198.473,243.864l0.534,53.296c-0.056,1.854-1.271,3.42-2.903,3.695c-0.202,0.034-0.418,0.062-0.648,0.082
			c-1.654,0.145-2.617-0.564-3.167-1.311c-0.445-0.604-0.679-1.368-0.712-2.151l-0.681-22.751l-3.396-20.343l-4.7,36.003
			c-0.075,0.975-0.541,1.875-1.291,2.371c-0.518,0.343-1.221,0.608-2.143,0.581c-1.345-0.041-2.279-0.761-2.849-1.403
			c-0.452-0.51-0.69-1.209-0.681-1.928l1.863-21.662l0.693-27.631L198.473,243.864z"/>
		<path fill="#FCDCD4" d="M191.57,196.157l-0.842,4.856c0,0-0.032,1.657,1.818,2.116c1.85,0.459,2.422-0.735,2.422-0.735
			l0.837-5.469L191.57,196.157z"/>
		<path fill="#FCDCD4" d="M201.567,194.918c-2.001,3.877-6.416,5.567-9.862,3.774s-4.617-6.389-2.617-10.266
			c2.001-3.877,6.416-5.566,9.862-3.774C202.396,186.445,203.567,191.041,201.567,194.918z"/>
		<path fill="#983BE9" d="M191.791,201.103c-0.129-0.052-7.85-5.023-10.704,0.179c-4.653,8.483-4.38,35.792-2.91,39.329
			c1.36,3.273,4.756,5.688,7.136,7.047c2.117,1.21,4.487,1.95,6.926,1.97c2.412,0.02,7.039-2.125,6.871-5.279
			c-0.772-14.508,0.511-26.736,1.695-38.602C200.805,205.746,199.324,204.152,191.791,201.103z"/>
		<path fill="#D8892B" d="M187.499,254.382l-4.7,36.003c-0.075,0.975-0.541,1.874-1.291,2.371c-0.123,0.081-0.258,0.156-0.401,0.227
			c0.976-0.731,3.824-30.951,4.351-34.313C185.985,255.306,187.499,254.382,187.499,254.382z"/>
	</g>
	<polygon fill="#FCDCD4" points="216.481,202.703 220.677,188.962 218.461,188.043 213.516,198.812 	"/>
	<polygon fill="#FCDCD4" points="174.188,191.873 177.333,177.566 179.837,177.594 178.896,189.459 	"/>
	<path fill="#983BE9" d="M200.805,205.746c0,0,7.538,1.503,12.332-7.273c0.422-0.773,1.543-0.888,1.988-0.209
		c0.769,1.171,1.787,2.965,1.26,4.903c-2.334,8.578-15.007,10.474-17.283,15.449C196.826,223.591,200.805,205.746,200.805,205.746z"
		/>
	<path fill="#983BE9" d="M186.894,199.319c0,0-5.971,0.459-6.829-4.708c-0.443-2.66-0.576-4.25-0.601-5.166
		c-0.017-0.62-0.556-1.089-1.171-1.013c-1.43,0.178-3.643,0.604-3.943,1.563c-0.448,1.431-1.291,8.447,4.605,19.214
		C182.818,216.263,186.894,199.319,186.894,199.319z"/>
	<path fill="#FCDCD4" d="M177.32,177.602l0.057-1.631c0.021-0.576,0.188-1.137,0.487-1.629l1.653-2.717l0.432-0.543
		c0.398-0.502,1.11-0.623,1.653-0.282l0.38,0.239c0.485,0.305,0.764,0.851,0.728,1.422l-0.855,2.322l1.081-0.21
		c0.211-0.041,0.414,0.098,0.451,0.309l0,0c0.032,0.179-0.065,0.356-0.234,0.424l-1.766,0.713l-1.604,2.271L177.32,177.602z"/>
	<path fill="#FCDCD4" d="M220.738,189.034l0.5-1.553c0.177-0.549,0.209-1.133,0.095-1.698l-0.633-3.117l-0.222-0.658
		c-0.204-0.607-0.832-0.963-1.458-0.827l-0.438,0.096c-0.561,0.122-1.008,0.541-1.168,1.091l0.017,2.474l-0.946-0.564
		c-0.184-0.11-0.422-0.048-0.529,0.138l0,0c-0.091,0.157-0.059,0.357,0.076,0.478l1.42,1.27l0.829,3.013L220.738,189.034z"/>
	<path fill="#721BD5" d="M197.273,216.141c-0.688,3.135,1.241,27.465-5.035,33.486c2.413,0.02,7.039-2.125,6.871-5.279
		c-0.518-9.729-0.105-18.422,0.576-26.68c2.461-3.188,9.232-5.219,13.47-9.309C212.846,208.454,197.954,213.038,197.273,216.141z"/>
	<path fill="#FFFFFF" d="M189.015,199.731l1.071-1.102c0,0,1.764,1.802,3.181,2.115c0,0,1.706,0.482,2.539,0.524l0.69,1.903
		C196.496,203.172,190.88,202.77,189.015,199.731z"/>
	<path fill="#173D7A" d="M196.582,194.19c0.293,0.045,0.586-0.041,0.793-0.252c0.361-0.369,0.51-2.322,1.455-2.487
		c1.477-0.256,4.478,2.054,5.695-2.905c0.633-2.577-0.518-3.489-0.266-4.918c0,0-0.014,0.736-6.65-0.867
		c-6.636-1.603-9.846,3.983-10.494,6.795c-0.647,2.812-0.078,7.717,4.399,9.148c0.743,0.237,4.381-1.781,4.356-2.133
		c-0.025-0.351-1.234-0.54-0.891-1.49C195.267,194.288,195.816,194.073,196.582,194.19z"/>
</g>
<g>
	<polygon fill="#721BD5" points="331.437,264.201 319.211,257.143 306.985,264.201 319.211,271.26 	"/>
	<polygon fill="#E8A200" points="319.211,264.712 319.211,256.759 333.817,248.326 333.817,256.279 	"/>
	<polygon fill="#F9BF30" points="319.211,256.759 304.604,248.326 304.604,256.279 319.211,264.712 	"/>
	<polygon fill="#FDD762" points="333.817,248.326 319.211,239.893 304.604,248.326 319.211,256.759 	"/>
</g>
<g>
	<polygon fill="#D4ECFF" points="253.403,367.434 241.178,360.375 228.952,367.434 241.178,374.492 	"/>
	<polygon fill="#D3008D" points="241.178,367.945 241.178,359.992 255.784,351.559 255.784,359.512 	"/>
	<polygon fill="#D3008D" points="241.178,359.992 226.571,351.559 226.571,359.512 241.178,367.945 	"/>
	<polygon fill="#FF2C9C" points="255.784,351.559 241.178,343.126 226.571,351.559 241.178,359.992 	"/>
</g>
<g>
	<g>
		<polygon fill="#D4ECFF" points="75.399,318.219 58.94,308.716 42.48,318.219 58.94,327.722 		"/>
		<polygon fill="#D4ECFF" points="58.94,308.716 42.48,299.213 26.021,308.716 42.48,318.219 		"/>
		<polygon fill="#721BD5" points="61.418,300.645 61.418,272.185 75.399,264.113 75.399,292.572 		"/>
		<polygon fill="#B45EF4" points="61.418,272.185 47.438,264.113 47.438,292.572 61.418,300.645 		"/>
		<polygon fill="#8A2AE3" points="75.399,264.113 61.418,256.041 47.438,264.113 61.418,272.185 		"/>
	</g>
	<g>
		<polygon fill="#95D359" points="75.399,303.335 61.418,295.263 61.418,300.645 75.399,308.716 		"/>
	</g>
	<g>
		<polygon fill="#C13D1A" points="47.438,308.716 47.438,265.666 61.418,257.595 61.418,300.645 		"/>
		<polygon fill="#DB5126" points="47.438,265.666 33.457,257.595 33.457,300.645 47.438,308.716 		"/>
		<polygon fill="#EF602E" points="61.418,257.595 47.438,249.522 33.457,257.595 47.438,265.666 		"/>
		<polygon fill="#D3008D" points="47.438,308.716 47.438,265.666 61.418,257.595 61.418,300.645 		"/>
		<polygon fill="#D3008D" points="47.438,265.666 33.457,257.595 33.457,300.645 47.438,308.716 		"/>
		<polygon fill="#FF2C9C" points="61.418,257.595 47.438,249.522 33.457,257.595 47.438,265.666 		"/>
	</g>
	<g>
		<polygon fill="#E8A200" points="61.418,316.788 61.418,292.572 75.399,284.5 75.399,308.716 		"/>
		<polygon fill="#F9BF30" points="61.418,292.572 47.438,284.5 47.438,308.716 61.418,316.788 		"/>
		<polygon fill="#FDD762" points="75.399,284.5 61.418,276.429 47.438,284.5 61.418,292.572 		"/>
	</g>
</g>
<g>
	<path fill="#D4ECFF" d="M160.618,345.766c-9.828-5.674-25.762-5.674-35.59,0s-9.827,14.874,0,20.549
		c9.828,5.674,25.763,5.674,35.591,0C170.447,360.64,170.446,351.44,160.618,345.766z M151.004,360.763
		c-4.518,2.608-11.842,2.608-16.36,0c-4.518-2.608-4.518-6.837,0-9.445s11.842-2.608,16.36,0
		C155.521,353.926,155.521,358.154,151.004,360.763z"/>
	<g>
		<g>
			<path fill="#E8A200" d="M121.316,337.971l8.977,0.141c0.665-0.865,1.607-1.676,2.836-2.385c4.937-2.85,12.699-3.07,18.077-0.664
				l5.334-5.018l8.214,0.129c-0.406-0.266-0.822-0.527-1.263-0.781c-11.414-6.591-29.921-6.591-41.336-0.001
				c-2.1,1.212-3.809,2.563-5.136,4.001L121.316,337.971z"/>
			<polygon fill="#F9BF30" points="164.754,317.137 164.754,330.174 156.54,330.045 156.54,317.009 			"/>
			<polygon fill="#E8A200" points="151.206,322.026 151.206,335.063 156.54,330.045 156.54,317.009 			"/>
			<path fill="#E8A200" d="M130.293,325.075v13.036l11.81-9.623l9.104,6.574v-13.036l-8.383-4.066c0,0-11.539,3.532-12.139,3.683
				C130.085,321.792,130.293,325.075,130.293,325.075z"/>
			<polygon fill="#E8A200" points="121.316,324.935 121.316,337.971 130.293,338.111 130.293,325.075 			"/>
			<polygon fill="#F9BF30" points="117.02,320.357 117.02,333.393 121.316,337.971 121.316,324.935 			"/>
			<path fill="#FDD762" d="M121.316,324.935l8.977,0.141c0.665-0.865,1.607-1.676,2.836-2.384c4.937-2.851,12.699-3.07,18.077-0.665
				l5.334-5.018l8.214,0.128c-0.406-0.266-0.822-0.527-1.263-0.781c-11.414-6.59-29.921-6.59-41.336,0
				c-2.1,1.212-3.809,2.563-5.136,4.002L121.316,324.935z"/>
		</g>
		<g>
			<path fill="#D3008D" d="M153.91,323.63v11.983l7.771-1.861c0,0-0.456-7.013-0.622-7.2
				C160.894,326.364,153.91,323.63,153.91,323.63z"/>
			<g>
				<path fill="#D3008D" d="M148.029,335.613v13.036l0.839,0.895l5.479-3.158c0,0-0.85-9.951-0.949-10.151
					S148.029,335.613,148.029,335.613z"/>
				<path fill="#D3008D" d="M158.607,332.248l-4.697,4.418c3.913,3.096,3.45,7.461-1.391,10.256
					c-1.326,0.766-2.857,1.342-4.49,1.728l4.855,5.173l-4.303,4.047c5.464-0.631,10.675-2.166,14.91-4.611
					c9.813-5.666,11.182-14.354,4.122-20.869L158.607,332.248z"/>
				<polygon fill="#D3008D" points="148.582,344.833 148.582,357.869 159.235,353.756 172.048,341.531 172,327.688 158.444,338.434 
									"/>
				<path fill="#FF2C9C" d="M158.607,319.211l-4.697,4.419c3.913,3.096,3.45,7.461-1.391,10.256
					c-1.326,0.766-2.857,1.341-4.49,1.728l4.855,5.173l-4.303,4.047c5.464-0.631,10.675-2.167,14.91-4.611
					c9.813-5.666,11.182-14.354,4.122-20.87L158.607,319.211z"/>
			</g>
		</g>
		<g>
			<path fill="#B45EF4" d="M148.548,353.755l-4.28-4.56c-3.973,0.242-8.094-0.516-11.139-2.273c-3.146-1.815-4.44-4.294-3.891-6.657
				l-10.191-0.159l-3.919-4.175c-3.429,5.884-1.09,12.64,7.028,17.327c5.965,3.443,13.866,5.084,21.68,4.929L148.548,353.755z"/>
			<polygon fill="#B45EF4" points="143.836,345.15 143.836,358.187 113.602,341.432 113.602,328.389 118.017,330.174 			"/>
			<polygon fill="#983BE9" points="148.548,340.719 148.548,353.755 143.836,358.187 143.836,345.15 			"/>
			<path fill="#8A2AE3" d="M148.548,340.719l-4.28-4.56c-3.973,0.241-8.094-0.516-11.139-2.273c-3.146-1.815-4.44-4.294-3.891-6.657
				l-10.191-0.159l-3.919-4.175c-3.429,5.883-1.09,12.64,7.028,17.326c5.965,3.444,13.866,5.084,21.68,4.93L148.548,340.719z"/>
		</g>
	</g>
</g>
</svg>
